<svg width="80" height="27" viewBox="0 0 80 27" fill="none" xmlns="http://www.w3.org/2000/svg">
<rect width="80" height="27" rx="13.5" fill="#0404D0"/>
<path d="M32.0319 18.0343V19.0703H44.9119V18.0343H32.0319ZM37.6739 6.9463C37.4079 7.8843 36.9039 9.2283 36.4699 10.0683L37.4359 10.3623C37.8839 9.5503 38.4439 8.3043 38.8919 7.2403L37.6739 6.9463ZM33.4459 9.6903V18.4823H34.4679V10.6983H36.4839V18.4823H37.4639V10.6983H39.5079V18.4823H40.4879V10.6983H42.5459V18.4823H43.6239V9.6903H33.4459ZM47.3759 7.5763V8.3883H58.5619V7.5763H47.3759ZM53.3819 10.8383V11.6923H58.4779V10.8383H53.3819ZM48.8179 13.0223V13.5403H52.6539V13.0223H48.8179ZM48.8179 14.0723V14.5903H52.6539V14.0723H48.8179ZM47.4879 16.7043V17.5023H57.5959V16.7043H47.4879ZM46.2419 18.6643V19.4763H58.7299V18.6643H46.2419ZM51.9399 15.9763V19.2103H52.9619V15.9763H51.9399ZM46.9699 7.5763V10.4183C46.9699 11.9723 46.8579 14.1003 45.8499 15.6543C46.0739 15.7523 46.4939 16.0183 46.6619 16.1723C47.7399 14.5343 47.9219 12.1263 47.9219 10.4183V7.5763H46.9699ZM49.4479 10.4043H52.0799V10.8943H49.4479V10.4043ZM49.4479 9.4103H52.0799V9.8863H49.4479V9.4103ZM48.6639 8.8783V11.4263H52.8779V8.8783H48.6639ZM48.4259 11.9443V15.8643H49.2659V12.5043H52.7099V11.9443H48.4259ZM52.2479 11.9443V15.0243C52.2479 15.1643 52.1919 15.2063 52.0379 15.2063C51.8979 15.2063 51.3799 15.2203 50.8059 15.1923C50.9039 15.3743 51.0159 15.6123 51.0579 15.8083C51.8699 15.8083 52.3739 15.8083 52.6959 15.6963C53.0179 15.5843 53.0879 15.4163 53.0879 15.0103V11.9443H52.2479ZM56.5179 9.2423C56.9659 9.6623 57.4839 10.2783 57.7079 10.6703L58.3659 10.2643C58.1139 9.8583 57.5959 9.2843 57.1339 8.8783L56.5179 9.2423ZM56.2939 11.3003L55.5379 11.4543C55.9299 13.4423 56.7419 15.1223 58.1699 15.9203C58.3099 15.6683 58.5899 15.3463 58.7999 15.1643C57.4419 14.5343 56.6439 13.0503 56.2939 11.3003ZM55.3139 8.7663V10.8243C55.3139 12.2383 55.0479 13.9743 52.9899 15.2623C53.1999 15.4163 53.4799 15.6823 53.6199 15.8643C55.8179 14.4503 56.1259 12.5463 56.1259 10.8383V8.7663H55.3139Z" fill="white"/>
<ellipse cx="13.8761" cy="13.2127" rx="7.84298" ry="7.46808" fill="white"/>
<path d="M10.2561 12.0437L15.0614 16.6193L24.6721 7.46802" stroke="black" stroke-width="1.95868" stroke-linecap="round" stroke-linejoin="round"/>
</svg>
