<svg width="89" height="33" viewBox="0 0 89 33" fill="none" xmlns="http://www.w3.org/2000/svg">
<rect width="89" height="33" rx="16.3223" fill="#D9D9D9"/>
<path d="M39.6017 21.3048V22.3408H52.4817V21.3048H39.6017ZM45.2437 10.2168C44.9777 11.1548 44.4737 12.4988 44.0397 13.3388L45.0057 13.6328C45.4537 12.8208 46.0137 11.5748 46.4617 10.5108L45.2437 10.2168ZM41.0157 12.9608V21.7528H42.0377V13.9688H44.0537V21.7528H45.0337V13.9688H47.0777V21.7528H48.0577V13.9688H50.1157V21.7528H51.1937V12.9608H41.0157ZM54.9457 10.8468V11.6588H66.1317V10.8468H54.9457ZM60.9517 14.1088V14.9628H66.0477V14.1088H60.9517ZM56.3877 16.2928V16.8108H60.2237V16.2928H56.3877ZM56.3877 17.3428V17.8608H60.2237V17.3428H56.3877ZM55.0577 19.9748V20.7728H65.1657V19.9748H55.0577ZM53.8117 21.9348V22.7468H66.2997V21.9348H53.8117ZM59.5097 19.2468V22.4808H60.5317V19.2468H59.5097ZM54.5397 10.8468V13.6888C54.5397 15.2428 54.4277 17.3708 53.4197 18.9248C53.6437 19.0228 54.0637 19.2888 54.2317 19.4428C55.3097 17.8048 55.4917 15.3968 55.4917 13.6888V10.8468H54.5397ZM57.0177 13.6748H59.6497V14.1648H57.0177V13.6748ZM57.0177 12.6808H59.6497V13.1568H57.0177V12.6808ZM56.2337 12.1488V14.6968H60.4477V12.1488H56.2337ZM55.9957 15.2148V19.1348H56.8357V15.7748H60.2797V15.2148H55.9957ZM59.8177 15.2148V18.2948C59.8177 18.4348 59.7617 18.4768 59.6077 18.4768C59.4677 18.4768 58.9497 18.4908 58.3757 18.4628C58.4737 18.6448 58.5857 18.8828 58.6277 19.0788C59.4397 19.0788 59.9437 19.0788 60.2657 18.9668C60.5877 18.8548 60.6577 18.6868 60.6577 18.2808V15.2148H59.8177ZM64.0877 12.5128C64.5357 12.9328 65.0537 13.5488 65.2777 13.9408L65.9357 13.5348C65.6837 13.1288 65.1657 12.5548 64.7037 12.1488L64.0877 12.5128ZM63.8637 14.5708L63.1077 14.7248C63.4997 16.7128 64.3117 18.3928 65.7397 19.1908C65.8797 18.9388 66.1597 18.6168 66.3697 18.4348C65.0117 17.8048 64.2137 16.3208 63.8637 14.5708ZM62.8837 12.0368V14.0948C62.8837 15.5088 62.6177 17.2448 60.5597 18.5328C60.7697 18.6868 61.0497 18.9528 61.1897 19.1348C63.3877 17.7208 63.6957 15.8168 63.6957 14.1088V12.0368H62.8837Z" fill="white"/>
<ellipse cx="16.1569" cy="16.1489" rx="9.13223" ry="9.12766" fill="white"/>
</svg>
