<svg width="80" height="27" viewBox="0 0 80 27" fill="none" xmlns="http://www.w3.org/2000/svg">
<rect width="80" height="27" rx="13.5" fill="#FF2B2B"/>
<ellipse cx="13.8761" cy="13.2127" rx="7.84298" ry="7.46808" fill="white"/>
<path d="M10.2561 12.0437L15.0614 16.6193L24.6721 7.46802" stroke="black" stroke-width="1.95868" stroke-linecap="round" stroke-linejoin="round"/>
<path d="M35.7279 10.8663V17.8943C35.7279 19.2663 36.1619 19.6443 37.6459 19.6443C37.9679 19.6443 40.0539 19.6443 40.3899 19.6443C41.9159 19.6443 42.2379 18.8603 42.3919 16.2143C42.0839 16.1443 41.6499 15.9483 41.3979 15.7383C41.2859 18.1603 41.1599 18.6783 40.3339 18.6783C39.8579 18.6783 38.0939 18.6783 37.7439 18.6783C36.9739 18.6783 36.8059 18.5523 36.8059 17.8943V10.8663H35.7279ZM35.8399 7.8143C37.5339 8.4163 39.5779 9.4663 40.6559 10.2783L41.3279 9.3543C40.2219 8.5983 38.1919 7.5903 36.4979 7.0163L35.8399 7.8143ZM33.3899 11.9863C33.1939 13.8063 32.7319 15.8503 31.7939 17.0823L32.7459 17.6563C33.7539 16.3123 34.1879 14.0723 34.3979 12.1963L33.3899 11.9863ZM41.5519 12.0003C42.7419 13.5823 43.7919 15.7663 44.0999 17.2363L45.1499 16.7323C44.7999 15.2483 43.7499 13.1343 42.4899 11.5383L41.5519 12.0003ZM46.7039 13.0643V18.1743H47.5019V13.0643H46.7039ZM47.5579 8.5703H49.8119V11.0483H47.5579V8.5703ZM46.6759 7.6603V11.9443H50.7359V7.6603H46.6759ZM48.3979 11.5943V17.9223H49.2799V11.5943H48.3979ZM45.9619 17.9783L46.1859 18.9583C47.5579 18.5943 49.3779 18.1183 51.1139 17.6563L51.0019 16.7603C49.1399 17.2363 47.2219 17.7123 45.9619 17.9783ZM48.9019 13.7223V14.6463H50.7919V13.7223H48.9019ZM55.2859 6.9463V18.0483C55.2859 19.2943 55.5379 19.6163 56.4899 19.6163C56.6999 19.6163 57.6239 19.6163 57.8339 19.6163C58.6879 19.6163 58.9399 19.0423 59.0379 17.4743C58.7579 17.4043 58.3799 17.2223 58.1419 17.0403C58.0999 18.3143 58.0439 18.6643 57.7779 18.6643C57.5819 18.6643 56.7979 18.6643 56.6439 18.6643C56.3359 18.6643 56.2659 18.5663 56.2659 18.0483V6.9463H55.2859ZM50.9179 9.1723C51.4919 10.1103 51.9959 11.3563 52.1499 12.1963L53.0459 11.8043C52.8779 10.9643 52.3599 9.7323 51.7439 8.8083L50.9179 9.1723ZM50.4839 15.4163L51.0719 16.3543C51.8419 15.7803 52.7379 15.0943 53.5779 14.4223L53.3119 13.6523C52.2619 14.3383 51.1979 15.0103 50.4839 15.4163ZM57.8339 8.7103C57.4699 9.6763 56.7979 11.0343 56.2799 11.8743L57.0359 12.2663C57.5819 11.4823 58.2539 10.2223 58.8139 9.1863L57.8339 8.7103ZM55.8179 13.9043C56.6999 14.6183 57.7919 15.5983 58.3239 16.2283L59.0239 15.4863C58.4779 14.8843 57.3439 13.9183 56.4759 13.2603L55.8179 13.9043ZM53.1159 6.9463V12.8823C53.1159 15.0663 53.0179 17.8383 50.3999 19.0843C50.6239 19.2803 50.9319 19.6443 51.0719 19.8683C53.8299 18.3283 54.0819 15.3743 54.0819 12.8683V6.9463H53.1159Z" fill="white"/>
</svg>
