<svg width="89" height="33" viewBox="0 0 89 33" fill="none" xmlns="http://www.w3.org/2000/svg">
<rect width="89" height="33" rx="16.3223" fill="#D9D9D9"/>
<path d="M43.2977 14.1368V21.1648C43.2977 22.5368 43.7317 22.9148 45.2157 22.9148C45.5377 22.9148 47.6237 22.9148 47.9597 22.9148C49.4857 22.9148 49.8077 22.1308 49.9617 19.4848C49.6537 19.4148 49.2197 19.2188 48.9677 19.0088C48.8557 21.4308 48.7297 21.9488 47.9037 21.9488C47.4277 21.9488 45.6637 21.9488 45.3137 21.9488C44.5437 21.9488 44.3757 21.8228 44.3757 21.1648V14.1368H43.2977ZM43.4097 11.0848C45.1037 11.6868 47.1477 12.7368 48.2257 13.5488L48.8977 12.6248C47.7917 11.8688 45.7617 10.8608 44.0677 10.2868L43.4097 11.0848ZM40.9597 15.2568C40.7637 17.0768 40.3017 19.1208 39.3637 20.3528L40.3157 20.9268C41.3237 19.5828 41.7577 17.3428 41.9677 15.4668L40.9597 15.2568ZM49.1217 15.2708C50.3117 16.8528 51.3617 19.0368 51.6697 20.5068L52.7197 20.0028C52.3697 18.5188 51.3197 16.4048 50.0597 14.8088L49.1217 15.2708ZM54.2737 16.3348V21.4448H55.0717V16.3348H54.2737ZM55.1277 11.8408H57.3817V14.3188H55.1277V11.8408ZM54.2457 10.9308V15.2148H58.3057V10.9308H54.2457ZM55.9677 14.8648V21.1928H56.8497V14.8648H55.9677ZM53.5317 21.2488L53.7557 22.2288C55.1277 21.8648 56.9477 21.3888 58.6837 20.9268L58.5717 20.0308C56.7097 20.5068 54.7917 20.9828 53.5317 21.2488ZM56.4717 16.9928V17.9168H58.3617V16.9928H56.4717ZM62.8557 10.2168V21.3188C62.8557 22.5648 63.1077 22.8868 64.0597 22.8868C64.2697 22.8868 65.1937 22.8868 65.4037 22.8868C66.2577 22.8868 66.5097 22.3128 66.6077 20.7448C66.3277 20.6748 65.9497 20.4928 65.7117 20.3108C65.6697 21.5848 65.6137 21.9348 65.3477 21.9348C65.1517 21.9348 64.3677 21.9348 64.2137 21.9348C63.9057 21.9348 63.8357 21.8368 63.8357 21.3188V10.2168H62.8557ZM58.4877 12.4428C59.0617 13.3808 59.5657 14.6268 59.7197 15.4668L60.6157 15.0748C60.4477 14.2348 59.9297 13.0028 59.3137 12.0788L58.4877 12.4428ZM58.0537 18.6868L58.6417 19.6248C59.4117 19.0508 60.3077 18.3648 61.1477 17.6928L60.8817 16.9228C59.8317 17.6088 58.7677 18.2808 58.0537 18.6868ZM65.4037 11.9808C65.0397 12.9468 64.3677 14.3048 63.8497 15.1448L64.6057 15.5368C65.1517 14.7528 65.8237 13.4928 66.3837 12.4568L65.4037 11.9808ZM63.3877 17.1748C64.2697 17.8888 65.3617 18.8688 65.8937 19.4988L66.5937 18.7568C66.0477 18.1548 64.9137 17.1888 64.0457 16.5308L63.3877 17.1748ZM60.6857 10.2168V16.1528C60.6857 18.3368 60.5877 21.1088 57.9697 22.3548C58.1937 22.5508 58.5017 22.9148 58.6417 23.1388C61.3997 21.5988 61.6517 18.6448 61.6517 16.1388V10.2168H60.6857Z" fill="white"/>
<ellipse cx="16.1569" cy="16.1489" rx="9.13223" ry="9.12766" fill="white"/>
</svg>
