<svg width="89" height="33" viewBox="0 0 89 33" fill="none" xmlns="http://www.w3.org/2000/svg">
<rect width="89" height="33" rx="16.3223" fill="#D9D9D9"/>
<path d="M37.3617 11.3788V12.2608H45.2997V11.3788H37.3617ZM37.3617 19.0088V19.9188H45.2437V19.0088H37.3617ZM40.7077 17.9448C40.5117 20.2968 39.9237 21.6408 37.0117 22.3268C37.2077 22.5228 37.4597 22.8868 37.5717 23.1248C40.7497 22.2988 41.4917 20.6888 41.7297 17.9448H40.7077ZM41.9537 19.3588L41.0857 19.5688C41.6737 21.3328 42.8917 22.5928 44.7677 23.1388C44.9077 22.8588 45.1877 22.4808 45.4257 22.2848C43.6617 21.8788 42.4717 20.8288 41.9537 19.3588ZM39.2797 10.2308V13.2968H40.2597V10.2308H39.2797ZM42.3317 10.2448V13.2968H43.2977V10.2448H42.3317ZM39.0977 16.1948H43.4937V17.2028H39.0977V16.1948ZM39.0977 14.4728H43.4937V15.4668H39.0977V14.4728ZM38.1457 13.7168V17.9728H44.4877V13.7168H38.1457ZM33.9317 10.8468V11.8128H36.3817V10.8468H33.9317ZM33.3997 10.8468V15.8448C33.3997 17.8888 33.3297 20.6748 32.4477 22.6488C32.6717 22.7328 33.0777 22.9428 33.2457 23.0968C34.1697 21.0388 34.2957 17.9868 34.2957 15.8448V10.8468H33.3997ZM35.9897 10.8468V21.8508C35.9897 22.0328 35.9337 22.0888 35.7657 22.0888C35.6257 22.0888 35.1357 22.0888 34.5897 22.0748C34.7157 22.3268 34.8277 22.7468 34.8557 22.9848C35.6537 22.9848 36.1297 22.9568 36.4517 22.8168C36.7597 22.6488 36.8577 22.3688 36.8577 21.8648V10.8468H35.9897ZM33.9457 14.0668V15.0188H36.3817V14.0668H33.9457ZM33.9177 17.3428V18.3088H36.3677V17.3428H33.9177ZM52.6217 14.7528V15.8028H58.3757V14.7528H52.6217ZM46.7557 21.3888V22.4388H59.3277V21.3888H46.7557ZM52.0197 10.4268V21.9488H53.1257V10.4268H52.0197ZM61.9457 10.8468V11.6588H73.1317V10.8468H61.9457ZM67.9517 14.1088V14.9628H73.0477V14.1088H67.9517ZM63.3877 16.2928V16.8108H67.2237V16.2928H63.3877ZM63.3877 17.3428V17.8608H67.2237V17.3428H63.3877ZM62.0577 19.9748V20.7728H72.1657V19.9748H62.0577ZM60.8117 21.9348V22.7468H73.2997V21.9348H60.8117ZM66.5097 19.2468V22.4808H67.5317V19.2468H66.5097ZM61.5397 10.8468V13.6888C61.5397 15.2428 61.4277 17.3708 60.4197 18.9248C60.6437 19.0228 61.0637 19.2888 61.2317 19.4428C62.3097 17.8048 62.4917 15.3968 62.4917 13.6888V10.8468H61.5397ZM64.0177 13.6748H66.6497V14.1648H64.0177V13.6748ZM64.0177 12.6808H66.6497V13.1568H64.0177V12.6808ZM63.2337 12.1488V14.6968H67.4477V12.1488H63.2337ZM62.9957 15.2148V19.1348H63.8357V15.7748H67.2797V15.2148H62.9957ZM66.8177 15.2148V18.2948C66.8177 18.4348 66.7617 18.4768 66.6077 18.4768C66.4677 18.4768 65.9497 18.4908 65.3757 18.4628C65.4737 18.6448 65.5857 18.8828 65.6277 19.0788C66.4397 19.0788 66.9437 19.0788 67.2657 18.9668C67.5877 18.8548 67.6577 18.6868 67.6577 18.2808V15.2148H66.8177ZM71.0877 12.5128C71.5357 12.9328 72.0537 13.5488 72.2777 13.9408L72.9357 13.5348C72.6837 13.1288 72.1657 12.5548 71.7037 12.1488L71.0877 12.5128ZM70.8637 14.5708L70.1077 14.7248C70.4997 16.7128 71.3117 18.3928 72.7397 19.1908C72.8797 18.9388 73.1597 18.6168 73.3697 18.4348C72.0117 17.8048 71.2137 16.3208 70.8637 14.5708ZM69.8837 12.0368V14.0948C69.8837 15.5088 69.6177 17.2448 67.5597 18.5328C67.7697 18.6868 68.0497 18.9528 68.1897 19.1348C70.3877 17.7208 70.6957 15.8168 70.6957 14.1088V12.0368H69.8837Z" fill="white"/>
<ellipse cx="16.1569" cy="16.1489" rx="9.13223" ry="9.12766" fill="white"/>
</svg>
