<svg width="80" height="27" viewBox="0 0 80 27" fill="none" xmlns="http://www.w3.org/2000/svg">
<rect width="80" height="27" rx="13.5" fill="black"/>
<path d="M31.8641 7.402V8.284H39.8021V7.402H31.8641ZM31.8641 15.032V15.942H39.7461V15.032H31.8641ZM35.2101 13.968C35.0141 16.32 34.4261 17.664 31.5141 18.35C31.7101 18.546 31.9621 18.91 32.0741 19.148C35.2521 18.322 35.9941 16.712 36.2321 13.968H35.2101ZM36.4561 15.382L35.5881 15.592C36.1761 17.356 37.3941 18.616 39.2701 19.162C39.4101 18.882 39.6901 18.504 39.9281 18.308C38.1641 17.902 36.9741 16.852 36.4561 15.382ZM33.7821 6.254V9.32H34.7621V6.254H33.7821ZM36.8341 6.268V9.32H37.8001V6.268H36.8341ZM33.6001 12.218H37.9961V13.226H33.6001V12.218ZM33.6001 10.496H37.9961V11.49H33.6001V10.496ZM32.6481 9.74V13.996H38.9901V9.74H32.6481ZM28.4341 6.87V7.836H30.8841V6.87H28.4341ZM27.9021 6.87V11.868C27.9021 13.912 27.8321 16.698 26.9501 18.672C27.1741 18.756 27.5801 18.966 27.7481 19.12C28.6721 17.062 28.7981 14.01 28.7981 11.868V6.87H27.9021ZM30.4921 6.87V17.874C30.4921 18.056 30.4361 18.112 30.2681 18.112C30.1281 18.112 29.6381 18.112 29.0921 18.098C29.2181 18.35 29.3301 18.77 29.3581 19.008C30.1561 19.008 30.6321 18.98 30.9541 18.84C31.2621 18.672 31.3601 18.392 31.3601 17.888V6.87H30.4921ZM28.4481 10.09V11.042H30.8841V10.09H28.4481ZM28.4201 13.366V14.332H30.8701V13.366H28.4201ZM47.1241 10.776V11.826H52.8781V10.776H47.1241ZM41.2581 17.412V18.462H53.8301V17.412H41.2581ZM46.5221 6.45V17.972H47.6281V6.45H46.5221ZM56.4481 6.87V7.682H67.6341V6.87H56.4481ZM62.4541 10.132V10.986H67.5501V10.132H62.4541ZM57.8901 12.316V12.834H61.7261V12.316H57.8901ZM57.8901 13.366V13.884H61.7261V13.366H57.8901ZM56.5601 15.998V16.796H66.6681V15.998H56.5601ZM55.3141 17.958V18.77H67.8021V17.958H55.3141ZM61.0121 15.27V18.504H62.0341V15.27H61.0121ZM56.0421 6.87V9.712C56.0421 11.266 55.9301 13.394 54.9221 14.948C55.1461 15.046 55.5661 15.312 55.7341 15.466C56.8121 13.828 56.9941 11.42 56.9941 9.712V6.87H56.0421ZM58.5201 9.698H61.1521V10.188H58.5201V9.698ZM58.5201 8.704H61.1521V9.18H58.5201V8.704ZM57.7361 8.172V10.72H61.9501V8.172H57.7361ZM57.4981 11.238V15.158H58.3381V11.798H61.7821V11.238H57.4981ZM61.3201 11.238V14.318C61.3201 14.458 61.2641 14.5 61.1101 14.5C60.9701 14.5 60.4521 14.514 59.8781 14.486C59.9761 14.668 60.0881 14.906 60.1301 15.102C60.9421 15.102 61.4461 15.102 61.7681 14.99C62.0901 14.878 62.1601 14.71 62.1601 14.304V11.238H61.3201ZM65.5901 8.536C66.0381 8.956 66.5561 9.572 66.7801 9.964L67.4381 9.558C67.1861 9.152 66.6681 8.578 66.2061 8.172L65.5901 8.536ZM65.3661 10.594L64.6101 10.748C65.0021 12.736 65.8141 14.416 67.2421 15.214C67.3821 14.962 67.6621 14.64 67.8721 14.458C66.5141 13.828 65.7161 12.344 65.3661 10.594ZM64.3861 8.06V10.118C64.3861 11.532 64.1201 13.268 62.0621 14.556C62.2721 14.71 62.5521 14.976 62.6921 15.158C64.8901 13.744 65.1981 11.84 65.1981 10.132V8.06H64.3861Z" fill="white"/>
<ellipse cx="13.8761" cy="13.1851" rx="7.84298" ry="7.45245" fill="white"/>
<path d="M10.2561 12.0185L15.0614 16.5845L24.6721 7.45239" stroke="black" stroke-width="1.95868" stroke-linecap="round" stroke-linejoin="round"/>
</svg>
