<svg width="30" height="30" viewBox="0 0 30 30" fill="none" xmlns="http://www.w3.org/2000/svg">
<path d="M6.25 15.749C6.25 14.0731 6.25 13.2352 6.59308 12.4987C6.93615 11.7621 7.58046 11.2168 8.86906 10.1262L10.1191 9.06821C12.4482 7.09689 13.6128 6.11124 15 6.11124C16.3872 6.11124 17.5518 7.09689 19.8809 9.06821L21.1309 10.1262C22.4195 11.2168 23.0638 11.7621 23.4069 12.4987C23.75 13.2352 23.75 14.0731 23.75 15.749V20.9829C23.75 23.3102 23.75 24.4739 23.0178 25.197C22.2855 25.92 21.107 25.92 18.75 25.92H11.25C8.89298 25.92 7.71447 25.92 6.98223 25.197C6.25 24.4739 6.25 23.3102 6.25 20.9829V15.749Z" stroke="#E7ECEF" stroke-width="2"/>
<path d="M18.125 25.92V19.5143C18.125 18.962 17.6773 18.5143 17.125 18.5143H12.875C12.3227 18.5143 11.875 18.962 11.875 19.5143V25.92" stroke="#E7ECEF" stroke-width="2" stroke-linecap="round" stroke-linejoin="round"/>
</svg>
