<svg width="34" height="30" viewBox="0 0 34 30" fill="none" xmlns="http://www.w3.org/2000/svg">
<path d="M21.2041 13.9259L17.9371 20.4599C17.5427 21.2553 16.3989 21.229 16.0373 20.4204L12.297 12.1182L10.325 16.8313H4.1394L16.1359 29.0908C16.6027 29.5707 17.3586 29.5707 17.8253 29.0908L29.8284 16.8313H22.6568L21.2041 13.9259ZM31.2943 2.75756L31.1366 2.59323C27.7512 -0.864409 22.2098 -0.864409 18.8179 2.59323L16.9839 4.47323L15.1499 2.5998C11.7646 -0.864409 6.21661 -0.864409 2.83128 2.5998L2.67352 2.75756C-0.527755 6.03114 -0.665797 11.2439 2.19365 14.7278H8.92487L11.2847 9.0615C11.6397 8.21353 12.8361 8.19381 13.2173 9.03521L17.0431 17.5347L20.2641 11.0993C20.6519 10.3236 21.7562 10.3236 22.1441 11.0993L23.9584 14.7278H31.7742C34.6336 11.2439 34.4956 6.03114 31.2943 2.75756Z" fill="#FFD5C2" fill-opacity="0.8"/>
</svg>
