<svg width="35" height="30" viewBox="0 0 35 30" fill="none" xmlns="http://www.w3.org/2000/svg">
<path d="M21.5146 13.9259L18.2476 20.4599C17.8532 21.2553 16.7094 21.229 16.3479 20.4204L12.6076 12.1182L10.6356 16.8313H4.44994L16.4465 29.0908C16.9132 29.5707 17.6692 29.5707 18.1359 29.0908L30.139 16.8313H22.9674L21.5146 13.9259ZM31.6049 2.75756L31.4471 2.59323C28.0618 -0.864409 22.5204 -0.864409 19.1285 2.59323L17.2945 4.47323L15.4605 2.5998C12.0751 -0.864409 6.52715 -0.864409 3.14183 2.5998L2.98406 2.75756C-0.217208 6.03114 -0.35525 11.2439 2.5042 14.7278H9.23541L11.5953 9.0615C11.9503 8.21353 13.1466 8.19381 13.5279 9.03521L17.3536 17.5347L20.5746 11.0993C20.9625 10.3236 22.0668 10.3236 22.4546 11.0993L24.2689 14.7278H32.0847C34.9442 11.2439 34.8061 6.03114 31.6049 2.75756Z" fill="#CBD3DE"/>
</svg>
