<svg width="102" height="200" viewBox="0 0 102 200" fill="none" xmlns="http://www.w3.org/2000/svg">
<path fill-rule="evenodd" clip-rule="evenodd" d="M84.8822 5.63527C84.7 2.85595 86.8239 0.463528 89.6053 0.315237L94.9163 0.0320736C97.7047 -0.116596 100.074 2.04742 100.179 4.83785L101.417 37.9044C101.493 39.9137 100.38 41.6618 98.7396 42.5229C98.6357 42.632 98.5223 42.7346 98.3994 42.8296L75.6498 60.4247C75.5829 60.4765 75.5145 60.5249 75.4448 60.5702L77 122H75.6506C75.7318 122.4 75.7651 122.817 75.7442 123.244L72.232 195.244C72.1021 197.907 69.9047 200 67.238 200H60C57.2386 200 55 197.761 55 195V123C55 122.658 55.0344 122.323 55.1 122H47V195C47 197.761 44.7614 200 42 200H34.7112C32.0652 200 29.8773 197.938 29.7201 195.297L25.3571 122H24L25.1741 60.1645C24.9 60.0616 24.6365 59.9165 24.3929 59.728L1.64613 42.1347C0.792057 41.4741 0.392339 40.4438 0.498036 39.4435C0.265258 38.8299 0.150576 38.1623 0.178252 37.4716L1.47682 5.06148C1.58832 2.27845 3.95243 0.123035 6.7339 0.268477L12.0452 0.546202C14.8338 0.692017 16.9625 3.0936 16.7725 5.87954L14.9079 33.2227L28.1059 43.4306C32.8875 44.1877 43.28 45.678 51 45.678C58.8783 45.678 68.6704 44.126 72.8967 43.385L86.6594 32.7406L84.8822 5.63527Z" fill="#4A5563"/>
<circle cx="50.5" cy="21.5" r="18.5" fill="#4A5563"/>
</svg>
