<svg width="66" height="66" viewBox="0 0 66 66" fill="none" xmlns="http://www.w3.org/2000/svg">
<path d="M32.9903 65.9805C14.7658 65.9805 0 51.2147 0 32.9902C0 14.7657 14.7658 -6.10352e-05 32.9903 -6.10352e-05C51.2147 -6.10352e-05 65.9805 14.7657 65.9805 32.9902C65.9805 51.2147 51.2147 65.9805 32.9903 65.9805ZM17.8387 35.2516L35.8636 53.2766C37.114 54.527 39.136 54.527 40.3732 53.2766L42.6346 51.0151C43.885 49.7647 43.885 47.7427 42.6346 46.5056L29.1192 32.9902L42.6346 19.4748C43.885 18.2244 43.885 16.2024 42.6346 14.9653L40.3732 12.7039C39.1227 11.4534 37.1007 11.4534 35.8636 12.7039L17.8387 30.7288C16.5883 31.9792 16.5883 34.0012 17.8387 35.2516Z" fill="#D9D9D9"/>
</svg>
