<svg width="35" height="32" viewBox="0 0 35 32" fill="none" xmlns="http://www.w3.org/2000/svg">
<rect x="10.5979" width="19.1963" height="22.883" rx="9.59816" fill="#FFCECE"/>
<path d="M32.5002 11.2189C32.5002 13.5968 30.7284 15.2493 28.8719 15.2493C27.0154 15.2493 25.2437 13.5968 25.2437 11.2189C25.2437 8.84089 27.0154 7.18848 28.8719 7.18848C30.7284 7.18848 32.5002 8.84089 32.5002 11.2189Z" fill="#FFCECE" stroke="#F8F8FB" stroke-width="5"/>
<path d="M33.243 11.2189C33.243 13.84 31.2565 15.9097 28.8718 15.9097C26.4871 15.9097 24.5006 13.84 24.5006 11.2189C24.5006 8.59782 26.4871 6.52808 28.8718 6.52808C31.2565 6.52808 33.243 8.59782 33.243 11.2189Z" fill="#F8F8FB" stroke="#FFCECE"/>
<ellipse cx="29.0287" cy="11.3863" rx="0.942809" ry="1.00468" fill="#FFCECE"/>
<line x1="0.25" y1="-0.25" x2="2.96481" y2="-0.25" transform="matrix(0.684298 -0.729202 0.684298 0.729202 28.7145 12.0562)" stroke="#FFCECE" stroke-width="0.5" stroke-linecap="round"/>
<path d="M17.1567 20.7113L16.6957 23.4991C15.9823 27.8128 11.6905 30.5595 7.47459 29.4004V29.4004C3.54051 28.3189 1.23474 24.2458 2.33189 20.316L3.1181 17.5" stroke="#FFCECE" stroke-width="1.5"/>
<path d="M6.60972 15.9014C6.07111 17.7481 4.4677 18.6846 3.14772 18.2474C1.82775 17.8102 1.00502 16.0702 1.54363 14.2235C2.08224 12.3769 3.68565 11.4403 5.00563 11.8775C6.32561 12.3147 7.14833 14.0548 6.60972 15.9014Z" fill="#FFCECE" stroke="#F8F8FB"/>
</svg>
