<svg width="35" height="32" viewBox="0 0 35 32" fill="none" xmlns="http://www.w3.org/2000/svg">
<rect x="10.5978" width="19.1963" height="22.883" rx="9.59816" fill="#CBD3DE"/>
<path d="M32.5 11.2189C32.5 13.5969 30.7283 15.2493 28.8718 15.2493C27.0153 15.2493 25.2435 13.5969 25.2435 11.2189C25.2435 8.8409 27.0153 7.18848 28.8718 7.18848C30.7283 7.18848 32.5 8.8409 32.5 11.2189Z" fill="#CBD3DE" stroke="#F8F8FB" stroke-width="5"/>
<path d="M33.2429 11.2189C33.2429 13.84 31.2564 15.9097 28.8717 15.9097C26.487 15.9097 24.5005 13.84 24.5005 11.2189C24.5005 8.5978 26.487 6.52806 28.8717 6.52806C31.2564 6.52806 33.2429 8.5978 33.2429 11.2189Z" fill="#F8F8FB" stroke="#CBD3DE"/>
<ellipse cx="29.0286" cy="11.3863" rx="0.942809" ry="1.00468" fill="#CBD3DE"/>
<line x1="0.25" y1="-0.25" x2="2.96481" y2="-0.25" transform="matrix(0.684298 -0.729202 0.684298 0.729202 28.7144 12.0561)" stroke="#CBD3DE" stroke-width="0.5" stroke-linecap="round"/>
<path d="M17.1569 20.7113L16.6958 23.4991C15.9824 27.8128 11.6906 30.5595 7.47471 29.4004V29.4004C3.54063 28.3189 1.23486 24.2458 2.33201 20.316L3.11822 17.5" stroke="#CBD3DE" stroke-width="1.5"/>
<path d="M6.60969 15.9014C6.07108 17.748 4.46767 18.6846 3.14769 18.2474C1.82771 17.8102 1.00499 16.0701 1.5436 14.2235C2.08221 12.3769 3.68562 11.4403 5.0056 11.8775C6.32558 12.3147 7.1483 14.0548 6.60969 15.9014Z" fill="#CBD3DE" stroke="#F8F8FB"/>
</svg>
