<svg width="36" height="32" viewBox="0 0 36 32" fill="none" xmlns="http://www.w3.org/2000/svg">
<rect x="10.9083" width="19.1963" height="22.883" rx="9.59816" fill="#CBD3DE"/>
<path d="M32.8106 11.2189C32.8106 13.5968 31.0389 15.2493 29.1823 15.2493C27.3258 15.2493 25.5541 13.5968 25.5541 11.2189C25.5541 8.84089 27.3258 7.18848 29.1823 7.18848C31.0389 7.18848 32.8106 8.84089 32.8106 11.2189Z" fill="#CBD3DE" stroke="#F8F8FB" stroke-width="5"/>
<path d="M33.5534 11.2189C33.5534 13.84 31.5669 15.9097 29.1822 15.9097C26.7975 15.9097 24.811 13.84 24.811 11.2189C24.811 8.59782 26.7975 6.52808 29.1822 6.52808C31.5669 6.52808 33.5534 8.59782 33.5534 11.2189Z" fill="#F8F8FB" stroke="#CBD3DE"/>
<ellipse cx="29.3392" cy="11.3863" rx="0.942809" ry="1.00468" fill="#CBD3DE"/>
<line x1="0.25" y1="-0.25" x2="2.96481" y2="-0.25" transform="matrix(0.684298 -0.729202 0.684298 0.729202 29.0249 12.0562)" stroke="#CBD3DE" stroke-width="0.5" stroke-linecap="round"/>
<path d="M17.4674 20.7113L17.0064 23.4991C16.2929 27.8128 12.0012 30.5595 7.78526 29.4004V29.4004C3.85118 28.3189 1.54541 24.2458 2.64256 20.316L3.42877 17.5" stroke="#CBD3DE" stroke-width="1.5"/>
<path d="M6.92027 15.9014C6.38166 17.7481 4.77825 18.6846 3.45827 18.2474C2.13829 17.8102 1.31557 16.0702 1.85418 14.2235C2.39279 12.3769 3.9962 11.4403 5.31618 11.8775C6.63615 12.3147 7.45888 14.0548 6.92027 15.9014Z" fill="#CBD3DE" stroke="#F8F8FB"/>
</svg>
