<svg width="35" height="32" viewBox="0 0 35 32" fill="none" xmlns="http://www.w3.org/2000/svg">
<rect x="10.5978" width="19.1963" height="22.883" rx="9.59816" fill="#FFDADA"/>
<path d="M32.5 11.2189C32.5 13.5968 30.7283 15.2493 28.8718 15.2493C27.0153 15.2493 25.2435 13.5968 25.2435 11.2189C25.2435 8.84089 27.0153 7.18848 28.8718 7.18848C30.7283 7.18848 32.5 8.84089 32.5 11.2189Z" fill="#FFDADA" stroke="#F8F8FB" stroke-width="5"/>
<path d="M33.2429 11.2189C33.2429 13.84 31.2564 15.9097 28.8717 15.9097C26.4871 15.9097 24.5005 13.84 24.5005 11.2189C24.5005 8.59779 26.4871 6.52805 28.8717 6.52805C31.2564 6.52805 33.2429 8.59779 33.2429 11.2189Z" fill="#F8F8FB" stroke="#FFDADA"/>
<ellipse cx="29.0287" cy="11.3863" rx="0.942809" ry="1.00468" fill="#FFDADA"/>
<line x1="0.25" y1="-0.25" x2="2.96481" y2="-0.25" transform="matrix(0.684298 -0.729202 0.684298 0.729202 28.7144 12.0561)" stroke="#FFDADA" stroke-width="0.5" stroke-linecap="round"/>
<path d="M17.1569 20.7113L16.6958 23.4991C15.9824 27.8128 11.6906 30.5595 7.47471 29.4004V29.4004C3.54063 28.3189 1.23486 24.2458 2.33201 20.316L3.11822 17.5" stroke="#FFDADA" stroke-width="1.5"/>
<path d="M6.60966 15.9014C6.07105 17.748 4.46764 18.6846 3.14766 18.2474C1.82768 17.8102 1.00496 16.0701 1.54357 14.2235C2.08218 12.3768 3.68559 11.4403 5.00557 11.8775C6.32555 12.3147 7.14827 14.0548 6.60966 15.9014Z" fill="#FFDADA" stroke="#F8F8FB"/>
</svg>
