<svg width="28" height="20" viewBox="0 0 28 20" fill="none" xmlns="http://www.w3.org/2000/svg">
<path d="M27.125 16.6667H3.5V0.833333C3.5 0.372917 3.10844 0 2.625 0H0.875C0.391562 0 0 0.372917 0 0.833333V18.3333C0 19.2536 0.783672 20 1.75 20H27.125C27.6084 20 28 19.6271 28 19.1667V17.5C28 17.0396 27.6084 16.6667 27.125 16.6667ZM25.375 1.66667H18.9186C17.7494 1.66667 17.1637 3.01302 17.9905 3.80052L19.7624 5.48802L15.75 9.3099L11.7376 5.48854C11.054 4.8375 9.94602 4.8375 9.26297 5.48854L5.50648 9.06615C5.16469 9.39167 5.16469 9.91927 5.50648 10.2448L6.74352 11.4229C7.08531 11.7484 7.6393 11.7484 7.98109 11.4229L10.5 9.02344L14.5124 12.8448C15.196 13.4958 16.304 13.4958 16.987 12.8448L22.237 7.84479L24.0089 9.53229C24.8358 10.3198 26.2495 9.76198 26.2495 8.64844V2.5C26.25 2.03958 25.8584 1.66667 25.375 1.66667Z" fill="#DADEFF" fill-opacity="0.74"/>
</svg>
