<svg width="66" height="66" viewBox="0 0 66 66" fill="none" xmlns="http://www.w3.org/2000/svg">
<path d="M32.9902 0C51.2147 0 65.9805 14.7658 65.9805 32.9903C65.9805 51.2147 51.2147 65.9805 32.9902 65.9805C14.7657 65.9805 -6.10352e-05 51.2147 -6.10352e-05 32.9903C-6.10352e-05 14.7658 14.7657 0 32.9902 0ZM48.1418 30.7288L30.1169 12.7039C28.8664 11.4535 26.8444 11.4535 25.6073 12.7039L23.3459 14.9653C22.0954 16.2158 22.0954 18.2378 23.3459 19.4749L36.8612 32.9903L23.3459 46.5056C22.0954 47.7561 22.0954 49.7781 23.3459 51.0152L25.6073 53.2766C26.8577 54.5271 28.8797 54.5271 30.1169 53.2766L48.1418 35.2517C49.3922 34.0013 49.3922 31.9793 48.1418 30.7288Z" fill="#D9D9D9"/>
</svg>
