<svg width="30" height="28" viewBox="0 0 30 28" fill="none" xmlns="http://www.w3.org/2000/svg">
<path d="M12.2491 2.63865L12.2491 2.63876L1.41822 22.14C1.4182 22.14 1.41818 22.14 1.41816 22.1401C0.248264 24.2461 1.67477 27 4.16912 27H25.8306C28.3194 27 29.7544 24.2511 28.5815 22.14L17.751 2.63877L17.7509 2.63864C16.5384 0.456272 13.4643 0.451299 12.2491 2.63865ZM13.9236 20.75C13.9236 20.0755 14.4408 19.5938 15 19.5938C15.5592 19.5938 16.0764 20.0755 16.0764 20.75C16.0764 21.4245 15.5592 21.9062 15 21.9062C14.4408 21.9062 13.9236 21.4245 13.9236 20.75ZM15.6597 16.75H14.3403L14.0514 11.25H15.9486L15.6597 16.75Z" fill="#FFD568" stroke="#4A5563" stroke-width="2"/>
</svg>
