<svg width="36" height="50" viewBox="0 0 36 50" fill="none" xmlns="http://www.w3.org/2000/svg">
<path d="M20.9324 2.15391C20.1225 -0.652272 15.8895 -0.782928 14.9715 2.15391C10.201 17.5363 0 21.7163 0 32.5578C0 42.1562 8.02941 49.9225 17.9519 49.9225C27.8744 49.9225 35.9038 42.1562 35.9038 32.5578C35.9038 21.6617 25.7253 17.6065 20.9324 2.15391ZM17.9519 43.6822C11.6535 43.6822 6.52797 38.7825 6.52797 32.7616C6.52797 31.8997 7.25829 31.2015 8.15997 31.2015C9.06164 31.2015 9.79196 31.8997 9.79196 32.7616C9.79196 37.0626 13.4527 40.562 17.9519 40.562C18.8536 40.562 19.5839 41.2601 19.5839 42.1221C19.5839 42.984 18.8536 43.6822 17.9519 43.6822Z" fill="#CBD3DE"/>
</svg>
