<svg width="42" height="50" viewBox="0 0 42 50" fill="none" xmlns="http://www.w3.org/2000/svg">
<path d="M23.9324 2.15391C23.1225 -0.652272 18.8895 -0.782928 17.9715 2.15391C13.201 17.5363 3 21.7163 3 32.5578C3 42.1562 11.0294 49.9225 20.9519 49.9225C30.8744 49.9225 38.9038 42.1562 38.9038 32.5578C38.9038 21.6617 28.7253 17.6065 23.9324 2.15391ZM20.9519 43.6822C14.6535 43.6822 9.52797 38.7825 9.52797 32.7616C9.52797 31.8997 10.2583 31.2015 11.16 31.2015C12.0616 31.2015 12.792 31.8997 12.792 32.7616C12.792 37.0626 16.4527 40.562 20.9519 40.562C21.8536 40.562 22.5839 41.2601 22.5839 42.1221C22.5839 42.984 21.8536 43.6822 20.9519 43.6822Z" fill="#D0E6FE" fill-opacity="0.8"/>
<path d="M15.3827 36.765V39H3.74273V36.765H8.30273V22.65C8.30273 22.2 8.31773 21.735 8.34773 21.255L4.68773 24.36C4.54773 24.47 4.40773 24.54 4.26773 24.57C4.12773 24.6 3.99273 24.605 3.86273 24.585C3.74273 24.565 3.63273 24.525 3.53273 24.465C3.44273 24.395 3.36773 24.325 3.30773 24.255L2.39273 22.98L8.84273 17.415H11.2277V36.765H15.3827ZM19.0301 37.245C19.0301 36.975 19.0801 36.72 19.1801 36.48C19.2801 36.24 19.4151 36.03 19.5851 35.85C19.7651 35.67 19.9751 35.53 20.2151 35.43C20.4551 35.32 20.7151 35.265 20.9951 35.265C21.2651 35.265 21.5201 35.32 21.7601 35.43C22.0001 35.53 22.2101 35.67 22.3901 35.85C22.5701 36.03 22.7101 36.24 22.8101 36.48C22.9201 36.72 22.9751 36.975 22.9751 37.245C22.9751 37.525 22.9201 37.785 22.8101 38.025C22.7101 38.265 22.5701 38.475 22.3901 38.655C22.2101 38.835 22.0001 38.975 21.7601 39.075C21.5201 39.175 21.2651 39.225 20.9951 39.225C20.7151 39.225 20.4551 39.175 20.2151 39.075C19.9751 38.975 19.7651 38.835 19.5851 38.655C19.4151 38.475 19.2801 38.265 19.1801 38.025C19.0801 37.785 19.0301 37.525 19.0301 37.245ZM33.2449 36.915C33.9249 36.915 34.5299 36.82 35.0599 36.63C35.5899 36.44 36.0399 36.175 36.4099 35.835C36.7799 35.485 37.0599 35.07 37.2499 34.59C37.4399 34.11 37.5349 33.585 37.5349 33.015C37.5349 32.315 37.4199 31.715 37.1899 31.215C36.9599 30.705 36.6499 30.29 36.2599 29.97C35.8699 29.64 35.4149 29.4 34.8949 29.25C34.3749 29.09 33.8249 29.01 33.2449 29.01C32.6549 29.01 32.0999 29.09 31.5799 29.25C31.0599 29.4 30.6049 29.64 30.2149 29.97C29.8249 30.29 29.5149 30.705 29.2849 31.215C29.0649 31.715 28.9549 32.315 28.9549 33.015C28.9549 33.585 29.0499 34.11 29.2399 34.59C29.4299 35.07 29.7099 35.485 30.0799 35.835C30.4499 36.175 30.8999 36.44 31.4299 36.63C31.9599 36.82 32.5649 36.915 33.2449 36.915ZM33.2449 19.47C32.6249 19.47 32.0799 19.565 31.6099 19.755C31.1499 19.935 30.7649 20.185 30.4549 20.505C30.1449 20.825 29.9099 21.195 29.7499 21.615C29.5999 22.035 29.5249 22.485 29.5249 22.965C29.5249 23.435 29.5899 23.895 29.7199 24.345C29.8599 24.785 30.0749 25.18 30.3649 25.53C30.6649 25.87 31.0499 26.145 31.5199 26.355C31.9899 26.565 32.5649 26.67 33.2449 26.67C33.9149 26.67 34.4849 26.565 34.9549 26.355C35.4349 26.145 35.8199 25.87 36.1099 25.53C36.4099 25.18 36.6249 24.785 36.7549 24.345C36.8949 23.895 36.9649 23.435 36.9649 22.965C36.9649 22.485 36.8849 22.035 36.7249 21.615C36.5749 21.195 36.3449 20.825 36.0349 20.505C35.7249 20.185 35.3349 19.935 34.8649 19.755C34.4049 19.565 33.8649 19.47 33.2449 19.47ZM36.4699 27.765C37.8099 28.165 38.8249 28.81 39.5149 29.7C40.2149 30.59 40.5649 31.715 40.5649 33.075C40.5649 34.015 40.3849 34.865 40.0249 35.625C39.6749 36.385 39.1749 37.035 38.5249 37.575C37.8849 38.105 37.1149 38.515 36.2149 38.805C35.3149 39.095 34.3249 39.24 33.2449 39.24C32.1649 39.24 31.1749 39.095 30.2749 38.805C29.3749 38.515 28.5999 38.105 27.9499 37.575C27.3099 37.035 26.8099 36.385 26.4499 35.625C26.0999 34.865 25.9249 34.015 25.9249 33.075C25.9249 31.715 26.2699 30.59 26.9599 29.7C27.6599 28.81 28.6799 28.165 30.0199 27.765C28.9099 27.345 28.0749 26.72 27.5149 25.89C26.9549 25.05 26.6749 24.055 26.6749 22.905C26.6749 22.105 26.8299 21.36 27.1399 20.67C27.4599 19.97 27.9049 19.365 28.4749 18.855C29.0549 18.345 29.7499 17.945 30.5599 17.655C31.3699 17.365 32.2649 17.22 33.2449 17.22C34.2249 17.22 35.1199 17.365 35.9299 17.655C36.7399 17.945 37.4299 18.345 37.9999 18.855C38.5799 19.365 39.0249 19.97 39.3349 20.67C39.6549 21.36 39.8149 22.105 39.8149 22.905C39.8149 24.055 39.5349 25.05 38.9749 25.89C38.4149 26.72 37.5799 27.345 36.4699 27.765Z" fill="#4A5B70" fill-opacity="0.9"/>
</svg>
