<svg width="20" height="28" viewBox="0 0 20 28" fill="none" xmlns="http://www.w3.org/2000/svg">
<path d="M11.2505 1.20807C10.8153 -0.36584 8.54015 -0.439121 8.04675 1.20807C5.48273 9.83556 0 12.18 0 18.2607C0 23.6441 4.31558 28 9.64865 28C14.9817 28 19.2973 23.6441 19.2973 18.2607C19.2973 12.1494 13.8266 9.87493 11.2505 1.20807ZM9.64865 24.5C6.2634 24.5 3.5086 21.752 3.5086 18.375C3.5086 17.8916 3.90112 17.5 4.38575 17.5C4.87037 17.5 5.2629 17.8916 5.2629 18.375C5.2629 20.7873 7.23046 22.75 9.64865 22.75C10.1333 22.75 10.5258 23.1416 10.5258 23.625C10.5258 24.1084 10.1333 24.5 9.64865 24.5Z" fill="#D0E6FE" fill-opacity="0.8"/>
</svg>
