<svg width="189" height="72" viewBox="0 0 189 72" fill="none" xmlns="http://www.w3.org/2000/svg">
<rect x="0.75" y="26.75" width="187.5" height="19.5" rx="2.25" fill="white" stroke="#4A5563" stroke-width="1.5"/>
<rect x="95.25" y="26.75" width="25.3962" height="19.5" fill="#FE5656" fill-opacity="0.8" stroke="#4A5563" stroke-width="1.5"/>
<line x1="94.3792" y1="56" x2="94.3792" y2="21" stroke="#4A5563" stroke-width="3.5"/>
<path d="M8.17713 3.36V4.384H16.1451V3.36H8.17713ZM8.48113 11.68V12.704H15.8411V11.68H8.48113ZM7.58513 15.84V16.88H16.3371V15.84H7.58513ZM11.4251 12.176V16.608H12.6251V12.176H11.4251ZM9.45713 4.928C9.13713 5.696 8.49713 6.928 7.90513 7.904C8.67313 9.04 9.34513 10.304 9.66513 11.152L10.6411 10.752C10.3371 10 9.66513 8.864 9.00913 7.888C9.50513 7.056 10.0811 6.016 10.4811 5.184L9.45713 4.928ZM12.0811 4.928C11.7451 5.696 11.0891 6.912 10.4651 7.904C11.2811 9.024 12.0171 10.288 12.3371 11.136L13.3291 10.704C12.9771 9.968 12.2731 8.832 11.5851 7.888C12.0811 7.056 12.6891 6.016 13.0891 5.184L12.0811 4.928ZM14.8011 4.928C14.4491 5.696 13.7451 6.928 13.0891 7.904C13.9531 9.04 14.7531 10.304 15.1211 11.152L16.0811 10.736C15.7291 9.984 14.9771 8.832 14.2571 7.888C14.7691 7.056 15.4091 6.048 15.8411 5.184L14.8011 4.928ZM1.77713 4.304V5.376H7.77713V4.304H1.77713ZM1.56913 13.424V14.496H7.90513V13.424H1.56913ZM4.27313 2.576V6.944H5.28113V2.576H4.27313ZM4.36913 7.008V11.664H4.27313V17.312H5.29713V11.664H5.21713V7.008H4.36913ZM2.97713 9.76H6.62513V11.232H2.97713V9.76ZM2.97713 7.456H6.62513V8.896H2.97713V7.456ZM2.08113 6.56V12.128H7.56913V6.56H2.08113Z" fill="#4A5563"/>
<path d="M81.2754 12.456H85.3314V13.912H81.2754V12.456ZM99.1009 12.24C99.1009 13.248 98.9915 14.12 98.7729 14.856C98.5595 15.592 98.2635 16.2027 97.8849 16.688C97.5062 17.1733 97.0609 17.5333 96.5489 17.768C96.0369 18.0027 95.4849 18.12 94.8929 18.12C94.3009 18.12 93.7489 18.0027 93.2369 17.768C92.7249 17.5333 92.2795 17.1733 91.9009 16.688C91.5275 16.2027 91.2342 15.592 91.0209 14.856C90.8075 14.12 90.7009 13.248 90.7009 12.24C90.7009 11.232 90.8075 10.36 91.0209 9.624C91.2342 8.88267 91.5275 8.272 91.9009 7.792C92.2795 7.30667 92.7249 6.94667 93.2369 6.712C93.7489 6.472 94.3009 6.352 94.8929 6.352C95.4849 6.352 96.0369 6.472 96.5489 6.712C97.0609 6.94667 97.5062 7.30667 97.8849 7.792C98.2635 8.272 98.5595 8.88267 98.7729 9.624C98.9915 10.36 99.1009 11.232 99.1009 12.24ZM97.3249 12.24C97.3249 11.3867 97.2555 10.6773 97.1169 10.112C96.9835 9.54133 96.8049 9.08533 96.5809 8.744C96.3569 8.40267 96.0982 8.16 95.8049 8.016C95.5115 7.872 95.2075 7.8 94.8929 7.8C94.5729 7.8 94.2662 7.872 93.9729 8.016C93.6849 8.16 93.4289 8.40267 93.2049 8.744C92.9809 9.08533 92.8022 9.54133 92.6689 10.112C92.5355 10.6773 92.4689 11.3867 92.4689 12.24C92.4689 13.0933 92.5355 13.8053 92.6689 14.376C92.8022 14.9413 92.9809 15.3947 93.2049 15.736C93.4289 16.0773 93.6849 16.32 93.9729 16.464C94.2662 16.608 94.5729 16.68 94.8929 16.68C95.2075 16.68 95.5115 16.608 95.8049 16.464C96.0982 16.32 96.3569 16.0773 96.5809 15.736C96.8049 15.3947 96.9835 14.9413 97.1169 14.376C97.2555 13.8053 97.3249 13.0933 97.3249 12.24ZM112.039 13.28H108.863V16.632H107.463V13.28H104.303V11.984H107.463V8.64H108.863V11.984H112.039V13.28Z" fill="#4A5563"/>
<path d="M173.685 15.792V16.784H188.037V15.792H173.685ZM173.765 5.408V6.4H187.941V5.408H173.765ZM174.869 13.456V14.416H187.013V13.456H174.869ZM180.181 3.792V16.272H181.381V3.792H180.181ZM185.749 2.656C183.221 3.12 178.693 3.408 174.965 3.504C175.077 3.76 175.221 4.176 175.221 4.464C178.965 4.384 183.525 4.112 186.389 3.584L185.749 2.656ZM176.549 10.24H185.205V11.472H176.549V10.24ZM176.549 8.224H185.205V9.44H176.549V8.224ZM175.381 7.36V12.336H186.421V7.36H175.381Z" fill="#4A5563"/>
<path d="M85.6174 64.821H82.7964V67.796H81.6834V64.821H78.8764V63.785H81.6834V60.824H82.7964V63.785H85.6174V64.821ZM88.9155 62.7C89.4288 62.5927 89.8932 62.539 90.3085 62.539C90.8312 62.539 91.2932 62.6183 91.6945 62.777C92.0958 62.931 92.4318 63.1457 92.7025 63.421C92.9778 63.6917 93.1832 64.0137 93.3185 64.387C93.4585 64.7557 93.5285 65.157 93.5285 65.591C93.5285 66.123 93.4352 66.606 93.2485 67.04C93.0618 67.474 92.8052 67.845 92.4785 68.153C92.1518 68.461 91.7645 68.699 91.3165 68.867C90.8732 69.0303 90.3948 69.112 89.8815 69.112C89.5782 69.112 89.2888 69.0817 89.0135 69.021C88.7428 68.9603 88.4885 68.881 88.2505 68.783C88.0125 68.6803 87.7908 68.5637 87.5855 68.433C87.3848 68.3023 87.2052 68.1647 87.0465 68.02L87.4665 67.432C87.5552 67.3013 87.6742 67.236 87.8235 67.236C87.9215 67.236 88.0288 67.2733 88.1455 67.348C88.2668 67.418 88.4092 67.4973 88.5725 67.586C88.7358 67.6747 88.9295 67.7563 89.1535 67.831C89.3775 67.901 89.6435 67.936 89.9515 67.936C90.2922 67.936 90.5978 67.8823 90.8685 67.775C91.1438 67.663 91.3748 67.5067 91.5615 67.306C91.7528 67.1053 91.8975 66.865 91.9955 66.585C92.0982 66.305 92.1495 65.9947 92.1495 65.654C92.1495 65.3507 92.1052 65.0777 92.0165 64.835C91.9278 64.5923 91.7948 64.3847 91.6175 64.212C91.4402 64.0393 91.2185 63.9087 90.9525 63.82C90.6865 63.7267 90.3762 63.68 90.0215 63.68C89.5268 63.68 88.9995 63.7687 88.4395 63.946L87.5785 63.694L88.3975 58.948H93.2135V59.543C93.2135 59.739 93.1505 59.9 93.0245 60.026C92.9032 60.1473 92.6978 60.208 92.4085 60.208H89.3495L88.9155 62.7ZM95.1606 68.181C95.1606 68.055 95.1839 67.936 95.2306 67.824C95.2773 67.712 95.3403 67.614 95.4196 67.53C95.5036 67.446 95.6016 67.3807 95.7136 67.334C95.8256 67.2827 95.9469 67.257 96.0776 67.257C96.2036 67.257 96.3226 67.2827 96.4346 67.334C96.5466 67.3807 96.6446 67.446 96.7286 67.53C96.8126 67.614 96.8779 67.712 96.9246 67.824C96.9759 67.936 97.0016 68.055 97.0016 68.181C97.0016 68.3117 96.9759 68.433 96.9246 68.545C96.8779 68.657 96.8126 68.755 96.7286 68.839C96.6446 68.923 96.5466 68.9883 96.4346 69.035C96.3226 69.0817 96.2036 69.105 96.0776 69.105C95.9469 69.105 95.8256 69.0817 95.7136 69.035C95.6016 68.9883 95.5036 68.923 95.4196 68.839C95.3403 68.755 95.2773 68.657 95.2306 68.545C95.1839 68.433 95.1606 68.3117 95.1606 68.181ZM98.6022 61.685C98.6722 61.2183 98.8029 60.8077 98.9942 60.453C99.1855 60.0983 99.4259 59.802 99.7152 59.564C100.005 59.3213 100.336 59.1393 100.709 59.018C101.087 58.8967 101.493 58.836 101.927 58.836C102.361 58.836 102.76 58.899 103.124 59.025C103.488 59.1463 103.799 59.3213 104.055 59.55C104.317 59.774 104.52 60.0447 104.664 60.362C104.809 60.6793 104.881 61.0293 104.881 61.412C104.881 61.734 104.842 62.0187 104.762 62.266C104.683 62.5133 104.569 62.7303 104.419 62.917C104.275 63.1037 104.097 63.2623 103.887 63.393C103.677 63.519 103.442 63.624 103.18 63.708C103.82 63.8853 104.3 64.1747 104.622 64.576C104.944 64.9727 105.105 65.4767 105.105 66.088C105.105 66.5593 105.017 66.984 104.839 67.362C104.662 67.7353 104.419 68.0527 104.111 68.314C103.803 68.5707 103.444 68.769 103.033 68.909C102.627 69.0443 102.193 69.112 101.731 69.112C101.204 69.112 100.751 69.049 100.373 68.923C99.9952 68.7923 99.6732 68.6127 99.4072 68.384C99.1412 68.1507 98.9195 67.873 98.7422 67.551C98.5695 67.2243 98.4225 66.8673 98.3012 66.48L98.8962 66.228C99.0502 66.1627 99.1995 66.144 99.3442 66.172C99.4889 66.2 99.5939 66.2817 99.6592 66.417C99.7292 66.557 99.8085 66.7157 99.8972 66.893C99.9905 67.0657 100.114 67.2313 100.268 67.39C100.422 67.544 100.614 67.6747 100.842 67.782C101.076 67.8893 101.367 67.943 101.717 67.943C102.053 67.943 102.347 67.8893 102.599 67.782C102.851 67.67 103.061 67.5277 103.229 67.355C103.397 67.1777 103.523 66.9817 103.607 66.767C103.691 66.5523 103.733 66.34 103.733 66.13C103.733 65.8687 103.701 65.6283 103.635 65.409C103.57 65.1897 103.444 65.003 103.257 64.849C103.075 64.6903 102.821 64.5667 102.494 64.478C102.168 64.3893 101.743 64.345 101.22 64.345V63.351C101.65 63.3463 102.011 63.302 102.305 63.218C102.604 63.134 102.844 63.0173 103.026 62.868C103.208 62.7187 103.339 62.5413 103.418 62.336C103.502 62.1307 103.544 61.902 103.544 61.65C103.544 61.3747 103.502 61.1343 103.418 60.929C103.334 60.7237 103.215 60.5533 103.061 60.418C102.912 60.278 102.732 60.1753 102.522 60.11C102.317 60.04 102.093 60.005 101.85 60.005C101.608 60.005 101.384 60.04 101.178 60.11C100.973 60.18 100.791 60.278 100.632 60.404C100.474 60.53 100.341 60.6793 100.233 60.852C100.126 61.0247 100.049 61.2113 100.002 61.412C99.9369 61.5893 99.8529 61.7083 99.7502 61.769C99.6522 61.8297 99.5099 61.8437 99.3232 61.811L98.6022 61.685ZM110.951 61.377C110.951 61.769 110.888 62.119 110.762 62.427C110.641 62.735 110.478 62.9963 110.272 63.211C110.067 63.421 109.827 63.5843 109.551 63.701C109.281 63.813 108.996 63.869 108.697 63.869C108.375 63.869 108.077 63.813 107.801 63.701C107.531 63.5843 107.295 63.421 107.094 63.211C106.894 62.9963 106.735 62.735 106.618 62.427C106.506 62.119 106.45 61.769 106.45 61.377C106.45 60.9757 106.506 60.6187 106.618 60.306C106.735 59.9933 106.894 59.7297 107.094 59.515C107.295 59.2957 107.531 59.13 107.801 59.018C108.077 58.9013 108.375 58.843 108.697 58.843C109.019 58.843 109.316 58.9013 109.586 59.018C109.862 59.13 110.1 59.2957 110.3 59.515C110.506 59.7297 110.664 59.9933 110.776 60.306C110.893 60.6187 110.951 60.9757 110.951 61.377ZM109.887 61.377C109.887 61.0783 109.855 60.8263 109.789 60.621C109.729 60.411 109.645 60.243 109.537 60.117C109.43 59.9863 109.304 59.893 109.159 59.837C109.015 59.7763 108.861 59.746 108.697 59.746C108.534 59.746 108.38 59.7763 108.235 59.837C108.091 59.893 107.965 59.9863 107.857 60.117C107.755 60.243 107.673 60.411 107.612 60.621C107.552 60.8263 107.521 61.0783 107.521 61.377C107.521 61.6663 107.552 61.9137 107.612 62.119C107.673 62.3197 107.755 62.483 107.857 62.609C107.965 62.735 108.091 62.826 108.235 62.882C108.38 62.938 108.534 62.966 108.697 62.966C108.861 62.966 109.015 62.938 109.159 62.882C109.304 62.826 109.43 62.735 109.537 62.609C109.645 62.483 109.729 62.3197 109.789 62.119C109.855 61.9137 109.887 61.6663 109.887 61.377ZM114.451 59.172C114.503 59.1113 114.561 59.06 114.626 59.018C114.696 58.9713 114.792 58.948 114.913 58.948H115.9L108.522 68.783C108.471 68.8483 108.41 68.902 108.34 68.944C108.27 68.9813 108.186 69 108.088 69H107.073L114.451 59.172ZM116.544 66.627C116.544 67.019 116.481 67.369 116.355 67.677C116.234 67.985 116.071 68.2463 115.865 68.461C115.66 68.671 115.42 68.8343 115.144 68.951C114.874 69.063 114.589 69.119 114.29 69.119C113.968 69.119 113.67 69.063 113.394 68.951C113.124 68.8343 112.888 68.671 112.687 68.461C112.487 68.2463 112.328 67.985 112.211 67.677C112.099 67.369 112.043 67.019 112.043 66.627C112.043 66.2257 112.099 65.8687 112.211 65.556C112.328 65.2433 112.487 64.9797 112.687 64.765C112.888 64.5457 113.124 64.38 113.394 64.268C113.67 64.156 113.968 64.1 114.29 64.1C114.612 64.1 114.909 64.156 115.179 64.268C115.455 64.38 115.693 64.5457 115.893 64.765C116.099 64.9797 116.257 65.2433 116.369 65.556C116.486 65.8687 116.544 66.2257 116.544 66.627ZM115.48 66.627C115.48 66.3283 115.448 66.0763 115.382 65.871C115.322 65.6657 115.238 65.5 115.13 65.374C115.023 65.2433 114.897 65.15 114.752 65.094C114.608 65.0333 114.454 65.003 114.29 65.003C114.122 65.003 113.966 65.0333 113.821 65.094C113.681 65.15 113.558 65.2433 113.45 65.374C113.348 65.5 113.266 65.6657 113.205 65.871C113.145 66.0763 113.114 66.3283 113.114 66.627C113.114 66.921 113.145 67.1683 113.205 67.369C113.266 67.5697 113.348 67.733 113.45 67.859C113.558 67.985 113.681 68.076 113.821 68.132C113.966 68.188 114.122 68.216 114.29 68.216C114.454 68.216 114.608 68.188 114.752 68.132C114.897 68.076 115.023 67.985 115.13 67.859C115.238 67.733 115.322 67.5697 115.382 67.369C115.448 67.1683 115.48 66.921 115.48 66.627Z" fill="#FD6262"/>
</svg>
