<svg width="26" height="23" viewBox="0 0 26 23" fill="none" xmlns="http://www.w3.org/2000/svg">
<path d="M16.26 10.8756L13.7363 15.9785C13.4316 16.5996 12.5481 16.5791 12.2688 15.9477L9.37951 9.46387L7.85616 13.1447H3.07792L12.345 22.7189C12.7055 23.0937 13.2894 23.0937 13.65 22.7189L22.9221 13.1447H17.3822L16.26 10.8756ZM24.0544 2.15356L23.9326 2.02522C21.3175 -0.675074 17.0369 -0.675074 14.4167 2.02522L13 3.49344L11.5833 2.03036C8.9682 -0.675074 4.68251 -0.675074 2.06743 2.03036L1.94556 2.15356C-0.52734 4.71012 -0.633974 8.7811 1.57488 11.5019H6.77458L8.59752 7.07673C8.87172 6.41449 9.79589 6.39909 10.0904 7.05619L13.0457 13.694L15.5338 8.66816C15.8334 8.06239 16.6865 8.06239 16.9861 8.66816L18.3876 11.5019H24.4251C26.634 8.7811 26.5273 4.71012 24.0544 2.15356Z" fill="#FFAF8B"/>
</svg>
