<svg width="25" height="24" viewBox="0 0 25 24" fill="none" xmlns="http://www.w3.org/2000/svg">
<path d="M10.1115 2.41354L10.1114 2.41366L1.36343 18.0552C0.345189 19.8754 1.58831 22.25 3.75198 22.25H21.2478C23.4064 22.25 24.6571 19.88 23.6364 18.0553C23.6364 18.0553 23.6364 18.0553 23.6364 18.0552L14.8886 2.41367L14.8885 2.41353C13.8353 0.531023 11.1671 0.526619 10.1115 2.41354ZM11.8229 17.0391C11.8229 16.6069 12.1549 16.3096 12.5 16.3096C12.8452 16.3096 13.1771 16.6069 13.1771 17.0391C13.1771 17.4712 12.8452 17.7686 12.5 17.7686C12.1549 17.7686 11.8229 17.4712 11.8229 17.0391ZM12.1493 13.6328L11.9369 9.61719H13.0631L12.8507 13.6328H12.1493ZM13.0936 9.04012L13.0936 9.04082L13.0936 9.04012ZM11.9064 9.04013C11.9064 9.04036 11.9064 9.04059 11.9064 9.04082L11.9064 9.04013Z" fill="#FFD568" stroke="#4A5563" stroke-width="2"/>
</svg>
