<svg width="33" height="28" viewBox="0 0 33 28" fill="none" xmlns="http://www.w3.org/2000/svg">
<path d="M32.6286 23.4316C33.6861 25.1354 32.3587 27.2651 30.2466 27.2651H2.75311C0.636928 27.2651 -0.684332 25.132 0.371094 23.4316L14.118 1.27725C15.176 -0.427294 17.8259 -0.424206 18.882 1.27725L32.6286 23.4316ZM16.5 18.8512C15.0445 18.8512 13.8646 19.948 13.8646 21.3008C13.8646 22.6537 15.0445 23.7504 16.5 23.7504C17.9555 23.7504 19.1354 22.6537 19.1354 21.3008C19.1354 19.948 17.9555 18.8512 16.5 18.8512ZM13.9979 10.0462L14.4229 17.2885C14.4428 17.6274 14.7442 17.8927 15.1094 17.8927H17.8906C18.2558 17.8927 18.5572 17.6274 18.5771 17.2885L19.0021 10.0462C19.0236 9.68016 18.71 9.37236 18.3156 9.37236H14.6843C14.2899 9.37236 13.9764 9.68016 13.9979 10.0462Z" fill="#FFBC58"/>
</svg>
