<svg width="36" height="31" viewBox="0 0 36 31" fill="none" xmlns="http://www.w3.org/2000/svg">
<rect x="10.6718" width="19.3303" height="22.1665" rx="9.66516" fill="#FE8B8B"/>
<path d="M32.7444 10.8676C32.7444 13.0393 31.0428 14.6935 29.0734 14.6935C27.104 14.6935 25.4023 13.0393 25.4023 10.8676C25.4023 8.6958 27.104 7.04166 29.0734 7.04166C31.0428 7.04166 32.7444 8.6958 32.7444 10.8676Z" fill="#FE8B8B" stroke="#F8F8FB" stroke-width="5"/>
<path d="M33.4785 10.8676C33.4785 13.3802 31.4947 15.3959 29.0734 15.3959C26.6521 15.3959 24.6682 13.3802 24.6682 10.8676C24.6682 8.35492 26.6521 6.33929 29.0734 6.33929C31.4947 6.33929 33.4785 8.35492 33.4785 10.8676Z" fill="#F8F8FB" stroke="#FE8B8B"/>
<ellipse cx="29.2315" cy="11.0298" rx="0.94939" ry="0.973218" fill="#FE8B8B"/>
<line x1="0.25" y1="-0.25" x2="2.92238" y2="-0.25" transform="matrix(0.69829 -0.715815 0.69829 0.715815 28.9149 11.6786)" stroke="#FE8B8B" stroke-width="0.5" stroke-linecap="round"/>
<path d="M17.2767 20.0628L16.8365 22.6234C16.1013 26.8995 11.858 29.6253 7.66334 28.5159V28.5159C3.65049 27.4547 1.29843 23.2976 2.45537 19.3113L3.14007 16.9521" stroke="#FE8B8B" stroke-width="1.5"/>
<path d="M6.65738 15.404C6.12118 17.1725 4.51696 18.0905 3.17376 17.6625C1.83057 17.2346 1.01662 15.5461 1.55282 13.7776C2.08902 12.0092 3.69325 11.0912 5.03644 11.5191C6.37963 11.9471 7.19359 13.6355 6.65738 15.404Z" fill="#FE8B8B" stroke="#F8F8FB"/>
</svg>
