<svg width="29" height="26" viewBox="0 0 29 26" fill="none" xmlns="http://www.w3.org/2000/svg">
<rect x="8.78113" width="15.9055" height="18.5803" rx="7.95274" fill="#FF8989"/>
<path d="M26.5 9.10937C26.5 10.7603 25.2449 11.9119 23.9223 11.9119C22.5996 11.9119 21.3446 10.7603 21.3446 9.10937C21.3446 7.45843 22.5996 6.30688 23.9223 6.30688C25.2449 6.30688 26.5 7.45843 26.5 9.10937Z" fill="#FF8989" stroke="#F8F8FB" stroke-width="5"/>
<path d="M27.4584 9.10957C27.4584 11.1818 25.8551 12.8244 23.9223 12.8244C21.9896 12.8244 20.3862 11.1818 20.3862 9.10957C20.3862 7.03731 21.9896 5.39478 23.9223 5.39478C25.8551 5.39478 27.4584 7.03731 27.4584 9.10957Z" fill="#F8F8FB" stroke="#FF8989"/>
<ellipse cx="24.0524" cy="9.2457" rx="0.781182" ry="0.815767" fill="#FF8989"/>
<line x1="0.25" y1="-0.25" x2="2.38545" y2="-0.25" transform="matrix(0.691631 -0.722251 0.691631 0.722251 23.792 9.78931)" stroke="#FF8989" stroke-width="0.5" stroke-linecap="round"/>
<path d="M14.2156 16.817L13.8439 19.0195C13.2456 22.5646 9.7234 24.8233 6.25189 23.8881V23.8881C2.97005 23.0039 1.04642 19.6052 1.97769 16.3364L2.58365 14.2095" stroke="#FF8989" stroke-width="1.5"/>
<path d="M5.39424 12.8847C4.9602 14.343 3.67589 15.0648 2.63467 14.7268C1.59346 14.3889 0.927199 13.034 1.36124 11.5757C1.79528 10.1174 3.07959 9.39569 4.12081 9.73363C5.16202 10.0716 5.82828 11.4264 5.39424 12.8847Z" fill="#FF8989" stroke="#F8F8FB"/>
</svg>
