<svg width="29" height="23" viewBox="0 0 29 23" fill="none" xmlns="http://www.w3.org/2000/svg">
<path d="M28.0938 18.8253H3.625V0.941265C3.625 0.421216 3.21945 0 2.71875 0H0.90625C0.405547 0 0 0.421216 0 0.941265V20.7078C0 21.7473 0.81166 22.5904 1.8125 22.5904H28.0938C28.5945 22.5904 29 22.1691 29 21.6491V19.7666C29 19.2465 28.5945 18.8253 28.0938 18.8253ZM26.2812 1.88253H19.5943C18.3833 1.88253 17.7767 3.40326 18.6331 4.29276L20.4682 6.19882L16.3125 10.5157L12.1568 6.19941C11.4488 5.46404 10.3012 5.46404 9.59379 6.19941L5.70314 10.2404C5.34914 10.6081 5.34914 11.204 5.70314 11.5717L6.98436 12.9024C7.33836 13.2701 7.91213 13.2701 8.26613 12.9024L10.875 10.1921L15.0307 14.5084C15.7387 15.2438 16.8863 15.2438 17.5937 14.5084L23.0312 8.86083L24.8664 10.7669C25.7228 11.6564 27.1869 11.0263 27.1869 9.76857V2.8238C27.1875 2.30375 26.782 1.88253 26.2812 1.88253Z" fill="#828FFE"/>
</svg>
