<svg width="29" height="39" viewBox="0 0 29 39" fill="none" xmlns="http://www.w3.org/2000/svg">
<path d="M16.6335 1.64126C15.9899 -0.497024 12.6263 -0.596583 11.8968 1.64126C8.10601 13.3625 0 16.5476 0 24.8087C0 32.1226 6.38041 38.0404 14.2652 38.0404C22.1499 38.0404 28.5303 32.1226 28.5303 24.8087C28.5303 16.506 20.4421 13.4159 16.6335 1.64126ZM14.2652 33.2854C9.26019 33.2854 5.18733 29.5519 5.18733 24.964C5.18733 24.3072 5.76766 23.7753 6.48416 23.7753C7.20066 23.7753 7.78099 24.3072 7.78099 24.964C7.78099 28.2413 10.6899 30.9078 14.2652 30.9078C14.9817 30.9078 15.562 31.4398 15.562 32.0966C15.562 32.7534 14.9817 33.2854 14.2652 33.2854Z" fill="#7CBBFF"/>
</svg>
