<svg width="26" height="31" viewBox="0 0 26 31" fill="none" xmlns="http://www.w3.org/2000/svg">
<path d="M14.5977 1.30531C14.0329 -0.395289 11.0809 -0.474469 10.4408 1.30531C7.11391 10.6273 0 13.1605 0 19.7307C0 25.5475 5.59951 30.2539 12.5192 30.2539C19.439 30.2539 25.0385 25.5475 25.0385 19.7307C25.0385 13.1274 17.9402 10.6698 14.5977 1.30531ZM12.5192 26.4722C8.12683 26.4722 4.55245 23.5029 4.55245 19.8542C4.55245 19.3318 5.06175 18.9087 5.69056 18.9087C6.31937 18.9087 6.82867 19.3318 6.82867 19.8542C6.82867 22.4606 9.3816 24.5813 12.5192 24.5813C13.148 24.5813 13.6573 25.0044 13.6573 25.5268C13.6573 26.0491 13.148 26.4722 12.5192 26.4722Z" fill="#7CBBFF"/>
</svg>
